<?xml version="1.0" standalone="no"?>
<!DOCTYPE svg PUBLIC "-//W3C//DTD SVG 20010904//EN"
 "http://www.w3.org/TR/2001/REC-SVG-20010904/DTD/svg10.dtd">
<svg version="1.0" xmlns="http://www.w3.org/2000/svg"
 width="32.000000pt" height="32.000000pt" viewBox="0 0 32.000000 32.000000"
 preserveAspectRatio="xMidYMid meet">
<metadata>
Created by potrace 1.16, written by Peter Selinger 2001-2019
</metadata>
<g transform="translate(0.000000,32.000000) scale(0.100000,-0.100000)"
fill="#000000" stroke="none">
<path d="M17 302 c-14 -15 -17 -41 -17 -144 0 -163 -5 -158 162 -158 163 0
158 -5 158 162 0 163 5 158 -162 158 -108 0 -127 -2 -141 -18z m184 -72 c21
-12 26 -52 6 -68 -6 -6 -28 -12 -47 -14 -31 -3 -35 -6 -38 -35 -6 -65 -22 -31
-22 47 l0 80 41 0 c22 0 49 -5 60 -10z"/>
<path d="M120 195 c0 -24 3 -26 38 -23 29 2 37 7 37 23 0 16 -8 21 -37 23 -35
3 -38 1 -38 -23z"/>
</g>
</svg>
